# xmcd
#
# Track frame offsets:
#	150
#	9605
#	29827
#	37757
#	53545
#	63832
#
# Disc length: 985 seconds
#
# Revision: 1
# Processed by: cddbd v1.5.2PL0 Copyright (c) Steve Scherf et al.
# Submitted via: audiograbber 1.83.01
#
DISCID=4103d706
DTITLE=Black Mountain Blues Band - A Cappella Party
DYEAR=1995
DGENRE=Blues
TTITLE0=A Cappella Party
TTITLE1=Jet Airliner
TTITLE2=I Ain't Never
TTITLE3=Cornbread, Pease and Black Molasses
TTITLE4=Cadillac Man
TTITLE5=Making Groupies Happy
EXTD=
EXTT0=
EXTT1=
EXTT2=
EXTT3=
EXTT4=
EXTT5=
PLAYORDER=
